<?xml version="1.0" standalone="no"?>
<!DOCTYPE svg PUBLIC "-//W3C//DTD SVG 20010904//EN"
 "http://www.w3.org/TR/2001/REC-SVG-20010904/DTD/svg10.dtd">
<svg version="1.0" xmlns="http://www.w3.org/2000/svg"
 width="512.000000pt" height="512.000000pt" viewBox="0 0 512.000000 512.000000"
 preserveAspectRatio="xMidYMid meet">
<metadata>
Created by potrace 1.16, written by Peter Selinger 2001-2019
</metadata>
<g transform="translate(0.000000,512.000000) scale(0.100000,-0.100000)"
fill="#000000" stroke="none">
<path d="M3350 5113 c-8 -3 -26 -15 -38 -27 -50 -45 -52 -57 -52 -348 0 -160
-4 -289 -11 -311 -13 -47 -63 -106 -106 -123 -26 -11 -150 -14 -625 -14 -326
0 -626 -5 -666 -10 -202 -26 -367 -169 -426 -369 -20 -68 -21 -198 -1 -270 47
-179 189 -319 372 -366 40 -10 109 -15 224 -15 188 0 232 -10 287 -63 46 -44
60 -75 71 -152 16 -108 63 -155 157 -155 158 0 201 173 97 388 -60 122 -166
215 -301 264 -48 17 -90 22 -263 27 l-206 6 -48 30 c-150 93 -112 321 61 364
28 7 249 11 662 11 588 0 623 1 683 20 167 51 298 195 334 367 11 50 15 143
15 348 0 255 -2 284 -20 322 -25 56 -70 83 -135 82 -27 0 -57 -3 -65 -6z" fill="#E0E2E5"/>
<path d="M1135 2416 c-40 -17 -82 -67 -95 -114 -10 -39 -14 -382 -4 -382 3 0
38 34 77 77 134 142 189 138 352 -26 l69 -71 748 0 748 0 0 265 0 265 -932 0
c-753 -1 -939 -3 -963 -14z" fill="#E0E2E5" />
<path d="M3320 2165 l0 -265 360 0 360 0 0 193 c0 208 -8 245 -61 294 -44 40
-70 43 -370 43 l-289 0 0 -265z" fill="#E0E2E5"/>
<path d="M4330 2055 l0 -155 128 0 c147 0 208 -14 264 -60 76 -63 111 -196 74
-284 -21 -51 -76 -107 -131 -132 -45 -21 -64 -24 -192 -24 l-143 0 0 -155 0
-155 153 0 c177 0 248 14 347 66 122 64 215 173 262 308 23 67 28 98 28 176 0
172 -47 288 -165 405 -125 125 -241 165 -482 165 l-143 0 0 -155z" fill="#E0E2E5"/>
<path d="M1135 1600 c-131 -142 -236 -277 -234 -303 0 -7 32 -34 70 -62 143
-102 295 -283 382 -455 71 -141 127 -358 127 -491 0 -33 4 -59 9 -59 12 0 133
130 168 181 195 284 200 656 13 941 -34 53 -100 124 -216 234 -91 88 -169 160
-173 162 -3 1 -69 -66 -146 -148z" fill="#76A34F" />
<path d="M1899 1527 c151 -221 221 -494 193 -747 -29 -256 -122 -456 -313
-673 -23 -26 -40 -50 -36 -53 3 -3 39 -15 79 -27 70 -21 96 -22 673 -25 632
-3 662 -2 810 43 294 89 552 333 662 625 61 164 65 192 70 578 l5 352 -184 0
-184 0 25 -72 c25 -71 26 -79 26 -348 0 -268 -1 -276 -23 -311 -43 -69 -39
-69 -529 -69 -419 0 -439 1 -471 20 -18 11 -41 34 -52 52 -20 31 -21 46 -18
323 3 273 5 293 26 345 12 30 22 56 22 58 0 1 -187 2 -415 2 l-415 0 49 -73z" fill="#D8F1A0"/>
<path d="M3074 1586 c-50 -22 -106 -78 -130 -131 -22 -46 -24 -64 -24 -207 l0
-158 261 0 261 0 -4 158 c-3 130 -8 165 -24 202 -26 56 -76 107 -129 131 -48
22 -165 25 -211 5z" fill="#E07E30"/>
<path d="M20 1170 c-19 -19 -20 -33 -20 -199 0 -237 24 -351 106 -500 159
-290 461 -471 786 -471 l93 0 -227 228 c-124 125 -231 237 -237 249 -17 33
-13 105 6 133 39 56 107 89 160 76 18 -5 108 -88 266 -244 l237 -236 0 92 c0
419 -306 791 -722 876 -53 11 -132 16 -253 16 -162 0 -177 -2 -195 -20z" fill="#76A34F"/>
</g>
</svg>
