<?xml version="1.0" standalone="no"?>
<!DOCTYPE svg PUBLIC "-//W3C//DTD SVG 20010904//EN"
 "http://www.w3.org/TR/2001/REC-SVG-20010904/DTD/svg10.dtd">
<svg version="1.0" xmlns="http://www.w3.org/2000/svg"
 width="512.000000pt" height="512.000000pt" viewBox="0 0 512.000000 512.000000"
 preserveAspectRatio="xMidYMid meet">
<metadata>
Created by potrace 1.16, written by Peter Selinger 2001-2019
</metadata>
<g transform="translate(0.000000,512.000000) scale(0.100000,-0.100000)"
fill ="#F08F33" stroke="none">
<path d="M1143 4985 c-57 -24 -86 -81 -168 -327 -43 -128 -80 -239 -83 -245
-3 -10 335 -13 1668 -13 1333 0 1671 3 1668 13 -3 6 -40 117 -83 245 -83 249
-111 303 -170 328 -51 21 -2784 20 -2832 -1z" fill="#303030"/>
<path d="M730 4305 c-12 -14 -50 -203 -50 -247 0 -17 96 -18 1880 -18 1784 0
1880 1 1880 18 0 44 -38 233 -50 247 -11 13 -204 15 -1830 15 -1626 0 -1819
-2 -1830 -15z" fill="#494949"/>
<path d="M923 3913 c4 -27 22 -214 42 -418 20 -203 38 -380 41 -392 l4 -23
1550 0 1550 0 4 23 c3 12 21 189 41 392 20 204 38 391 42 418 l6 47 -1643 0
-1643 0 6 -47z" fill="#E0E0E0"/>
<path d="M960 2994 c0 -3 43 -432 95 -954 52 -522 95 -951 95 -954 0 -3 635
-6 1410 -6 776 0 1410 3 1410 6 0 3 43 432 95 954 52 522 95 951 95 954 0 3
-720 6 -1600 6 -880 0 -1600 -3 -1600 -6z m1707 -499 c121 -36 243 -172 294
-326 21 -64 24 -93 24 -209 0 -116 -3 -145 -24 -209 -32 -97 -108 -211 -175
-261 -52 -40 -124 -75 -133 -66 -3 2 2 36 11 75 20 88 21 257 1 331 -8 30 -32
89 -54 131 -67 128 -84 203 -78 327 3 59 13 133 22 165 20 65 27 67 112 42z
m-197 -2 c-1 -5 -7 -35 -15 -68 -19 -79 -19 -245 0 -320 9 -33 38 -107 65
-165 27 -58 54 -127 61 -153 15 -63 7 -234 -16 -314 -21 -71 -26 -74 -112 -48
-121 36 -243 172 -294 326 -21 64 -24 93 -24 209 0 116 3 145 24 209 45 138
154 268 261 315 40 17 50 19 50 9z" fill="#F9D2A2"/>
<path d="M1220 973 c0 -16 13 -160 30 -322 25 -249 33 -301 54 -346 30 -65 87
-124 152 -156 l49 -24 1055 0 1055 0 49 24 c65 32 122 91 152 156 21 45 29 97
54 346 17 162 30 306 30 322 l0 27 -1340 0 -1340 0 0 -27z" fill="#E0E0E0"/>
</g>
</svg>
